# xmcd CD database file
#
# Track frame offsets:
#	150
#	21057
#	38145
#	61775
#	77497
#	99504
#	127800
#	151782
#	176365
#	200812
#	215937
#	243967
#
# Disc length: 3425 seconds
#
# Revision: 0
# Processed by: cddbd v1.5PL3 Copyright (c) Steve Scherf et al.
# Submitted via: CDex 1.50beta10
#
DISCID=930d5f0c
DTITLE=Louis Bo Collins - If Trouble Was Money
DYEAR=1996
DGENRE=Blues
TTITLE0=If Trouble Was Money 
TTITLE1=Fire Down Below
TTITLE2=I've Got the Blues
TTITLE3=The Train
TTITLE4=Precious Lord
TTITLE5=Detroit, Michigan
TTITLE6=Lost Love Affair
TTITLE7=Born in the Country
TTITLE8=B.B. King Medley
TTITLE9=Buzz Me
TTITLE10=I'm Gonna Get Even
TTITLE11=Bo's Groove
EXTD=YEAR: 1996
EXTT0=
EXTT1=
EXTT2=
EXTT3=
EXTT4=
EXTT5=
EXTT6=
EXTT7=
EXTT8=
EXTT9=
EXTT10=
EXTT11=
PLAYORDER=
